<?xml version="1.0" encoding="utf-8"?>
<!-- Generator: Adobe Illustrator 19.0.0, SVG Export Plug-In . SVG Version: 6.00 Build 0)  -->
<svg version="1.1" id="Layer_1" xmlns="http://www.w3.org/2000/svg" xmlns:xlink="http://www.w3.org/1999/xlink" x="0px" y="0px"
	 viewBox="0 0 512 512" style="enable-background:new 0 0 512 512;" xml:space="preserve">
<g id="XMLID_1_">
	<path id="XMLID_5_" d="M466.5,304.8c-26.9-46.5-11.2-105.9,36.2-132.9l-50.2-87.3c-13.9,8.4-30.7,13-49.2,13
		c-53.9,0-97.6-43.7-97.6-97.6H205.4c0,16.7-3.7,33.5-13,49.2c-26.9,46.5-86.4,62.3-132.9,35.3L9.3,171.9
		c14.9,8.4,26.9,20.4,36.2,35.3c26.9,46.5,11.2,105.9-35.3,132.9l50.2,87.3c13.9-8.4,30.7-13,48.3-13c53.9,0,96.6,43.7,97.6,97.6
		h100.4c0-16.7,3.7-33.5,13-48.3c26.9-46.5,86.4-62.3,132.9-35.3l50.2-87.3C486.9,331.7,474.8,319.7,466.5,304.8z M255.5,358.7
		c-56.7,0-103.1-46.5-103.1-103.1s46.5-103.1,103.1-103.1s103.1,46.5,103.1,103.1S313.1,358.7,255.5,358.7z"/>
</g>
</svg>
